<?xml version="1.0" standalone="no"?>
<!DOCTYPE svg PUBLIC "-//W3C//DTD SVG 20010904//EN"
 "http://www.w3.org/TR/2001/REC-SVG-20010904/DTD/svg10.dtd">
<svg version="1.0" xmlns="http://www.w3.org/2000/svg"
 width="260.000000pt" height="260.000000pt" viewBox="0 0 260.000000 260.000000"
 preserveAspectRatio="xMidYMid meet">
<metadata>
Created by potrace 1.11, written by Peter Selinger 2001-2013
</metadata>
<g transform="translate(0.000000,260.000000) scale(0.100000,-0.100000)"
fill="#000000" stroke="none">
<path d="M888 2015 c-2 -1 -30 -5 -63 -8 -238 -20 -501 -236 -575 -474 -44
-142 -44 -301 1 -430 79 -231 270 -410 499 -469 87 -23 263 -22 349 1 239 62
446 275 506 518 18 76 21 226 6 302 -50 252 -252 466 -503 535 -62 16 -210 34
-220 25z m235 -89 c274 -92 450 -354 434 -645 -9 -169 -66 -297 -188 -419 -80
-81 -157 -128 -263 -163 -71 -24 -95 -27 -196 -24 -85 1 -132 8 -180 23 -193
63 -361 233 -423 427 -18 59 -22 91 -21 200 1 112 5 139 26 197 77 208 245
364 452 418 104 27 254 21 359 -14z"/>
<path d="M1738 1984 c-11 -10 5 -44 21 -45 9 0 140 -1 291 -2 177 -1 274 -6
273 -12 -2 -9 -373 -822 -524 -1148 -32 -71 -59 -130 -59 -133 0 -2 153 -4
340 -4 l340 0 0 25 c0 20 -5 25 -27 26 -16 0 -148 0 -295 1 l-267 0 9 21 c4
12 33 75 64 140 31 65 56 120 56 122 0 2 20 45 44 97 24 51 80 172 124 268 44
96 93 204 110 240 16 36 53 117 82 180 29 63 63 137 76 164 13 28 24 53 24 58
0 9 -673 11 -682 2z"/>
</g>
</svg>
